<svg width="26" height="26" viewBox="0 0 26 26" fill="none" xmlns="http://www.w3.org/2000/svg">
<circle cx="13" cy="13" r="13" fill="#0DBA70"/>
<path d="M13.08 12.435C13.03 12.43 12.97 12.43 12.915 12.435C11.725 12.395 10.78 11.42 10.78 10.22C10.78 8.995 11.77 8 13 8C14.225 8 15.22 8.995 15.22 10.22C15.215 11.42 14.27 12.395 13.08 12.435Z" stroke="white" stroke-width="1.5" stroke-linecap="round" stroke-linejoin="round"/>
<path d="M10.5801 14.28C9.37011 15.09 9.37011 16.41 10.5801 17.215C11.9551 18.135 14.2101 18.135 15.5851 17.215C16.7951 16.405 16.7951 15.085 15.5851 14.28C14.2151 13.365 11.9601 13.365 10.5801 14.28Z" stroke="white" stroke-width="1.5" stroke-linecap="round" stroke-linejoin="round"/>
</svg>
